<?xml version="1.0" encoding="UTF-8"?>
<svg width="26px" height="23px" viewBox="0 0 26 23" version="1.1" xmlns="http://www.w3.org/2000/svg" xmlns:xlink="http://www.w3.org/1999/xlink">
    <!-- Generator: Sketch 56.3 (81716) - https://sketch.com -->
    <title>etsy</title>
    <desc>Created with Sketch.</desc>
    <g id="etsy" stroke="none" stroke-width="1" fill="none" fill-rule="evenodd">
        <path d="M21.3571178,15.9084887 C21.2780164,16.3943976 20.7356064,20.8805797 20.656505,21.8749979 C15.3282809,21.6806873 10.7170902,21.660603 4,21.8749979 L4,20.7223768 C6.05469544,20.3179089 6.74038846,20.3599315 6.75725049,19.1290476 C6.83829416,15.8600214 6.91655692,8.09360103 6.75725049,4.57438113 C6.71072542,3.28796734 6.20896974,3.36459686 4,2.94715133 L4,1.79453022 C7.3396967,1.90113179 15.5683661,2.18103261 20.4078563,1.62502712 C20.2496534,3.35395878 20.0575499,7.34293182 20.0575499,7.34293182 L19.0066748,7.34293182 C18.507082,5.40675613 18.158762,3.25225692 16.5319295,3.25225692 L10.3394161,3.25225692 C9.8761076,3.25225692 9.85350718,3.41045981 9.85350718,3.69296499 L9.85350718,11.0946005 C12.4751552,11.1172009 13.8537804,10.9815984 13.8537804,10.9815984 C15.1993879,10.9386047 15.0994958,10.5973031 15.6957142,8.0322003 L16.8596355,8.0322003 C16.6604252,12.6133307 16.6828932,10.8269269 16.780534,15.2756329 L15.6166127,15.2756329 C15.2027868,13.4637154 15.2068478,12.5163519 13.8311359,12.495782 C13.8311359,12.495782 12.8593181,12.4053804 9.85346304,12.4053804 L9.85346304,18.6882954 C9.85346304,19.8635169 10.4975748,20.4172271 11.8535997,20.4172271 L15.8878177,20.4172271 C18.7642059,20.4172271 18.8965861,19.287383 20.3514435,15.9084445 L21.3571178,15.9084445 L21.3571178,15.9084887 Z" id="" fill="#008000"></path>
    </g>
</svg>