<?xml version="1.0" encoding="UTF-8"?>
<svg width="26px" height="23px" viewBox="0 0 26 23" version="1.1" xmlns="http://www.w3.org/2000/svg" xmlns:xlink="http://www.w3.org/1999/xlink">
    <!-- Generator: Sketch 52.5 (67469) - http://www.bohemiancoding.com/sketch -->
    <title>External icon</title>
    <desc>Created with Sketch.</desc>
    <g id="External-icon" stroke="none" stroke-width="1" fill="none" fill-rule="evenodd">
        <path d="M19.8571429,13.6875 L19.8571429,18.0625 C19.8571429,20.2363281 18.1294643,22 16,22 L4.85714286,22 C2.72767857,22 1,20.2363281 1,18.0625 L1,6.6875 C1,4.51367188 2.72767857,2.75 4.85714286,2.75 L14.2857143,2.75 C14.5267857,2.75 14.7142857,2.94140625 14.7142857,3.1875 L14.7142857,4.0625 C14.7142857,4.30859375 14.5267857,4.5 14.2857143,4.5 L4.85714286,4.5 C3.67857143,4.5 2.71428571,5.484375 2.71428571,6.6875 L2.71428571,18.0625 C2.71428571,19.265625 3.67857143,20.25 4.85714286,20.25 L16,20.25 C17.1785714,20.25 18.1428571,19.265625 18.1428571,18.0625 L18.1428571,13.6875 C18.1428571,13.4414062 18.3303571,13.25 18.5714286,13.25 L19.4285714,13.25 C19.6696429,13.25 19.8571429,13.4414062 19.8571429,13.6875 Z M25,1.875 L25,8.875 C25,9.35351562 24.6116071,9.75 24.1428571,9.75 C23.9151786,9.75 23.7008929,9.65429688 23.5401786,9.49023438 L21.1830357,7.08398438 L12.4508929,15.9980469 C12.3705357,16.0800781 12.25,16.1347656 12.1428571,16.1347656 C12.0357143,16.1347656 11.9151786,16.0800781 11.8348214,15.9980469 L10.3080357,14.4394531 C10.2276786,14.3574219 10.1741071,14.234375 10.1741071,14.125 C10.1741071,14.015625 10.2276786,13.8925781 10.3080357,13.8105469 L19.0401786,4.89648438 L16.6830357,2.49023438 C16.5223214,2.32617188 16.4285714,2.10742188 16.4285714,1.875 C16.4285714,1.39648438 16.8169643,1 17.2857143,1 L24.1428571,1 C24.6116071,1 25,1.39648438 25,1.875 Z" id="" fill="#008000"></path>
    </g>
</svg>