<?xml version="1.0" encoding="UTF-8"?>
<svg width="26px" height="23px" viewBox="0 0 26 23" version="1.1" xmlns="http://www.w3.org/2000/svg" xmlns:xlink="http://www.w3.org/1999/xlink">
    <!-- Generator: Sketch 56.3 (81716) - https://sketch.com -->
    <title>instagram</title>
    <desc>Created with Sketch.</desc>
    <g id="instagram" stroke="none" stroke-width="1" fill="none" fill-rule="evenodd">
        <path d="M13.1298124,6.04156122 C16.2880356,6.04156122 18.8354371,8.58896275 18.8354371,11.7471859 C18.8354371,14.9053605 16.2880356,17.4527621 13.1298124,17.4527621 C9.97163779,17.4527621 7.42423625,14.9053605 7.42423625,11.7471859 C7.42423625,8.58896275 9.97163779,6.04156122 13.1298124,6.04156122 Z M13.1298124,15.4565354 C15.1707499,15.4565354 16.8392104,13.7930212 16.8392104,11.7471859 C16.8392104,9.70130206 15.1756963,8.03778791 13.1298124,8.03778791 C11.0839771,8.03778791 9.42046294,9.70130206 9.42046294,11.7471859 C9.42046294,13.7930212 11.0889234,15.4565354 13.1298124,15.4565354 Z M20.399637,5.80816297 C20.399637,6.54807374 19.8037513,7.13896459 19.0688354,7.13896459 C18.3289246,7.13896459 17.7380337,6.54307893 17.7380337,5.80816297 C17.7380337,5.07324701 18.3339194,4.47736134 19.0688354,4.47736134 C19.8037513,4.47736134 20.399637,5.07324701 20.399637,5.80816297 Z M24.1785259,7.15884685 C24.282835,8.99616099 24.282835,14.4981623 24.1785259,16.3354764 C24.0891527,18.1181871 23.6819545,19.6972745 22.3809762,20.9983012 C21.0799495,22.3042743 19.5008622,22.7114725 17.7181515,22.7958993 C15.8808373,22.9001599 10.3738412,22.9001599 8.53652707,22.7958993 C6.75386488,22.7064777 5.17972387,22.2993279 3.87375081,20.9983012 C2.56777775,19.6972745 2.16057952,18.1181871 2.07615268,16.3354764 C1.97189209,14.4981623 1.97189209,8.99121468 2.07615268,7.15390053 C2.16552583,5.37118984 2.56777775,3.79210252 3.87375081,2.49107578 C5.17972387,1.19004904 6.75881119,0.782850798 8.53652707,0.698472456 C10.3738412,0.594163368 15.8808373,0.594163368 17.7181515,0.698472456 C19.5008622,0.787845608 21.0799495,1.19504385 22.3809762,2.49602209 C23.6869493,3.79704884 24.0941475,5.37613616 24.1785259,7.15884685 Z M21.8049243,18.3068746 C22.3859225,16.8469353 22.2518386,13.3659892 22.2518386,11.7471859 C22.2518386,10.1283341 22.3859225,6.65233433 21.8049243,5.18744873 C21.412662,4.20919339 20.6628101,3.45938999 19.6895496,3.072074 C18.2296103,2.49602209 14.7486643,2.62515975 13.1298124,2.62515975 C11.5110091,2.62515975 8.03500936,2.49107578 6.57012376,3.072074 C5.59186843,3.46433631 4.84206502,4.2141882 4.45474904,5.18744873 C3.87869713,6.64738801 4.00783479,10.1283341 4.00783479,11.7471859 C4.00783479,13.3659892 3.87375081,16.841989 4.45474904,18.3068746 C4.84701134,19.2851299 5.59686324,20.0349333 6.57012376,20.4222493 C8.03006305,20.9983012 11.5110091,20.8691635 13.1298124,20.8691635 C14.7486643,20.8691635 18.224664,21.0032475 19.6895496,20.4222493 C20.6678049,20.029987 21.4176083,19.2801351 21.8049243,18.3068746 Z" id="" fill="#008000"></path>
    </g>
</svg>