<?xml version="1.0" encoding="UTF-8"?>
<svg width="26px" height="23px" viewBox="0 0 26 23" version="1.1" xmlns="http://www.w3.org/2000/svg" xmlns:xlink="http://www.w3.org/1999/xlink">
    <!-- Generator: Sketch 64 (93537) - https://sketch.com -->
    <title>youtube</title>
    <desc>Created with Sketch.</desc>
    <g id="youtube" stroke="none" stroke-width="1" fill="none" fill-rule="evenodd">
        <path d="M21.4861126,18.5220203 C22.4756905,18.2586523 23.2550638,17.5148169 23.5195984,16.5293437 C23.963248,14.8804704 23.9973749,11.5780429 24,11.0797338 L24,10.9525775 C23.9973749,10.4542737 23.963248,7.15188085 23.5195984,5.50300755 C23.2550638,4.51749374 22.4756905,3.74134769 21.4861126,3.47797972 C19.8917401,3.05252524 15.0316693,3.00525252 13.7491149,3 L13.2508865,3 C11.9683389,3.00525252 6.10829645,3.05252524 4.51388738,3.47797972 C3.52430947,3.74138838 2.74493616,4.51749374 2.48040164,5.50300755 C2.03675204,7.15188085 2.00262515,10.4542737 2,10.9525775 L2,11.0797338 C2.00262515,11.5780429 2.03675204,14.8804704 2.48040164,16.5293437 C2.74493616,17.5148169 3.52430947,18.2586523 4.51388738,18.5220203 C6.10829645,18.9474748 11.9683389,18.9947475 13.2508865,19 L13.7491135,19 C15.0316611,18.9947475 19.8917036,18.9474748 21.4861126,18.5220203 Z M11,15 L11,8 L17,11.5000842 L11,15 Z" id="" fill="#008000" fill-rule="nonzero"></path>
    </g>
</svg>